<?xml version="1.0" encoding="UTF-8"?>
<svg xmlns="http://www.w3.org/2000/svg" version="1.1" xmlns:xlink="http://www.w3.org/1999/xlink" viewBox="0 0 1920 1080">
  <defs>
    <style>
      .cls-1, .cls-2, .cls-3, .cls-4, .cls-5, .cls-6, .cls-7, .cls-8, .cls-9, .cls-10 {
        font-family: Couture-Bold, Couture;
        font-weight: 700;
      }

      .cls-1, .cls-4 {
        font-size: 29.69px;
      }

      .cls-1, .cls-11, .cls-12, .cls-8 {
        fill: #02024d;
      }

      .cls-13, .cls-14, .cls-15, .cls-16, .cls-12, .cls-17 {
        font-family: MyriadPro-Regular, 'Myriad Pro';
      }

      .cls-13, .cls-2, .cls-6, .cls-7, .cls-12, .cls-17, .cls-8, .cls-10 {
        font-size: 16.05px;
      }

      .cls-13, .cls-18, .cls-19 {
        fill: #9e99aa;
      }

      .cls-20 {
        fill: url(#radial-gradient-4);
      }

      .cls-20, .cls-18, .cls-21, .cls-22, .cls-23, .cls-24, .cls-25, .cls-26, .cls-27 {
        stroke-width: 0px;
      }

      .cls-20, .cls-22 {
        mix-blend-mode: overlay;
      }

      .cls-14, .cls-7, .cls-9, .cls-26 {
        fill: #406e8e;
      }

      .cls-14, .cls-9 {
        font-size: 99.23px;
      }

      .cls-3, .cls-15, .cls-5, .cls-16 {
        font-size: 97.1px;
      }

      .cls-3, .cls-4, .cls-28, .cls-16, .cls-6, .cls-29, .cls-17, .cls-24 {
        fill: #fff;
      }

      .cls-30 {
        stroke: #406e8e;
      }

      .cls-30, .cls-31, .cls-32, .cls-33, .cls-34 {
        fill: none;
        stroke-miterlimit: 10;
      }

      .cls-35 {
        isolation: isolate;
      }

      .cls-15, .cls-5, .cls-21 {
        fill: #23395b;
      }

      .cls-28 {
        font-family: AcuminPro-Regular, 'AcuminPro Regular';
        font-size: 11px;
        letter-spacing: .4em;
      }

      .cls-31, .cls-33 {
        stroke: #fff;
      }

      .cls-22 {
        fill: url(#radial-gradient-2);
      }

      .cls-32 {
        stroke: #8ea8c3;
      }

      .cls-32, .cls-33 {
        stroke-width: 2px;
      }

      .cls-23 {
        fill: url(#radial-gradient);
      }

      .cls-36, .cls-25 {
        fill: #8ea8c3;
      }

      .cls-27 {
        fill: url(#radial-gradient-3);
      }

      .cls-10 {
        fill: #02024d;
      }

      .cls-34 {
        stroke: #b2b2b2;
      }
    </style>
    <radialGradient id="radial-gradient" cx="885.02" cy="883.04" fx="885.02" fy="883.04" r="1740.02" gradientTransform="translate(393.03 10.1) scale(.64 .6)" gradientUnits="userSpaceOnUse">
      <stop offset="0" stop-color="#001d29"/>
      <stop offset=".4" stop-color="#001927"/>
      <stop offset=".75" stop-color="#000f21"/>
      <stop offset="1" stop-color="#00021a"/>
    </radialGradient>
    <radialGradient id="radial-gradient-2" cx="892.51" cy="325.68" fx="892.51" fy="325.68" r="2100.39" gradientTransform="translate(388.37 233.32) scale(.64 .6)" gradientUnits="userSpaceOnUse">
      <stop offset="0" stop-color="#fff"/>
      <stop offset="1" stop-color="#000"/>
    </radialGradient>
    <radialGradient id="radial-gradient-3" cx="1889.45" cy="1280.32" fx="1889.45" fy="1280.32" r="425.41" gradientTransform="translate(-644.93 -854.78) scale(.84 .98)" xlink:href="#radial-gradient"/>
    <radialGradient id="radial-gradient-4" cx="7179.89" cy="2430.2" fx="7179.89" fy="2430.2" r="2100.39" gradientTransform="translate(-7.05 -617.56) scale(.13 .39)" xlink:href="#radial-gradient-2"/>
  </defs>
  <g class="cls-35">
    <g id="PACKAGES_PAGE" data-name="PACKAGES PAGE">
      <g>
        <rect class="cls-23" x="-.76" y="-.08" width="1921" height="1080"/>
        <rect class="cls-22" x=".24" y="-.08" width="1919" height="1080"/>
        <g>
          <rect class="cls-24" x="570.55" y="-147.77" width="734.41" height="1218.97" rx="47.08" ry="47.08" transform="translate(1399.47 -476.03) rotate(90)"/>
          <path class="cls-27" d="M774.75,46.01h325.83c23.81,0,43.13,19.33,43.13,43.13v625.95c0,15.18-12.32,27.5-27.5,27.5h-341.46c-15.18,0-27.5-12.32-27.5-27.5V73.51c0-15.18,12.32-27.5,27.5-27.5Z"/>
          <g>
            <ellipse class="cls-24" cx="834.85" cy="415.3" rx="7.58" ry="7.47"/>
            <polyline class="cls-32" points="830.91 415.31 834.09 417.69 838.85 412.59"/>
          </g>
          <g>
            <ellipse class="cls-24" cx="834.85" cy="461.06" rx="7.58" ry="7.47"/>
            <polyline class="cls-32" points="830.91 461.07 834.09 463.45 838.85 458.34"/>
          </g>
          <g>
            <ellipse class="cls-24" cx="834.85" cy="506.82" rx="7.58" ry="7.47"/>
            <polyline class="cls-32" points="830.91 506.82 834.09 509.2 838.85 504.1"/>
          </g>
          <g>
            <ellipse class="cls-24" cx="834.85" cy="552.57" rx="7.58" ry="7.47"/>
            <polyline class="cls-32" points="830.91 552.58 834.09 554.96 838.85 549.86"/>
          </g>
          <g>
            <ellipse class="cls-25" cx="834.85" cy="597.56" rx="7.58" ry="7.47"/>
            <polyline class="cls-33" points="830.91 598.32 833.36 599.95 837.04 596.45"/>
          </g>
          <line class="cls-31" x1="827.27" y1="377.02" x2="1055.87" y2="377.02"/>
          <line class="cls-34" x1="424.07" y1="427.22" x2="652.66" y2="427.22"/>
          <g>
            <ellipse class="cls-21" cx="1229.88" cy="465.51" rx="7.58" ry="7.47"/>
            <polyline class="cls-33" points="1225.93 465.52 1229.11 467.9 1233.88 462.79"/>
          </g>
          <g>
            <ellipse class="cls-26" cx="432.1" cy="465.51" rx="7.58" ry="7.47"/>
            <polyline class="cls-33" points="428.15 465.52 431.33 467.9 436.1 462.79"/>
          </g>
          <g>
            <ellipse class="cls-26" cx="432.1" cy="511.14" rx="7.58" ry="7.47"/>
            <polyline class="cls-33" points="428.15 511.15 431.33 513.53 436.1 508.43"/>
          </g>
          <g>
            <ellipse class="cls-26" cx="432.1" cy="556.78" rx="7.58" ry="7.47"/>
            <polyline class="cls-33" points="428.15 556.78 431.33 559.16 436.1 554.06"/>
          </g>
          <g>
            <ellipse class="cls-21" cx="1229.88" cy="511.14" rx="7.58" ry="7.47"/>
            <polyline class="cls-33" points="1225.93 511.15 1229.11 513.53 1233.88 508.43"/>
          </g>
          <g>
            <ellipse class="cls-21" cx="1229.88" cy="556.78" rx="7.58" ry="7.47"/>
            <polyline class="cls-33" points="1225.93 556.78 1229.11 559.16 1233.88 554.06"/>
          </g>
          <g>
            <ellipse class="cls-21" cx="1229.88" cy="602.41" rx="7.58" ry="7.47"/>
            <polyline class="cls-33" points="1225.93 602.42 1229.11 604.8 1233.88 599.7"/>
          </g>
          <g>
            <ellipse class="cls-21" cx="1229.88" cy="648.05" rx="7.58" ry="7.47"/>
            <polyline class="cls-33" points="1225.93 648.05 1229.11 650.43 1233.88 645.33"/>
          </g>
          <g>
            <ellipse class="cls-18" cx="432.08" cy="602.41" rx="7.58" ry="7.47"/>
            <polyline class="cls-33" points="428.13 602.42 431.31 604.8 436.08 599.7"/>
          </g>
          <g>
            <ellipse class="cls-18" cx="432.08" cy="648.05" rx="7.58" ry="7.47"/>
            <polyline class="cls-33" points="428.13 648.05 431.31 650.43 436.08 645.33"/>
          </g>
          <line class="cls-34" x1="1222.3" y1="427.22" x2="1450.89" y2="427.22"/>
          <rect class="cls-26" x="839.85" y="649.32" width="195.8" height="49.42" rx="13" ry="13"/>
          <rect class="cls-21" x="1235.43" y="714.59" width="195.8" height="49.42" rx="13" ry="13"/>
          <rect class="cls-30" x="424.07" y="714.59" width="195.8" height="49.42" rx="13" ry="13"/>
          <text class="cls-16" transform="translate(844.67 188.17) scale(.59)"><tspan x="0" y="0">$</tspan></text>
          <text class="cls-3" transform="translate(874.13 220.5) scale(1.01 1)"><tspan x="0" y="0">70</tspan></text>
          <text class="cls-17" transform="translate(991.38 195) scale(1.01 1)"><tspan x="0" y="0">/mo</tspan></text>
          <text class="cls-17" transform="translate(911.76 262.97) scale(1.01 1)"><tspan x="0" y="0">$687/yr</tspan></text>
          <text class="cls-2" transform="translate(856.69 420.37) scale(1.01 1)"><tspan class="cls-29"><tspan x="0" y="0">All Llimited links</tspan></tspan><tspan class="cls-29"><tspan x="0" y="45.26">Own analytics platform</tspan></tspan><tspan class="cls-29"><tspan x="0" y="90.52">Chat support</tspan></tspan><tspan class="cls-29"><tspan x="0" y="135.79">Optimize hashtag</tspan></tspan><tspan class="cls-36"><tspan x="0" y="181.05">Unlimited users</tspan></tspan></text>
          <text class="cls-6" transform="translate(827.27 319.23) scale(1.01 1)"><tspan x="0" y="0">For most business that want</tspan><tspan x="0" y="27.61">to optimize web queries</tspan></text>
          <text class="cls-14" transform="translate(458.01 226.51) scale(.56 .58)"><tspan x="0" y="0">$</tspan></text>
          <text class="cls-9" transform="translate(486.32 259.55) scale(.95 1)"><tspan x="0" y="0">19</tspan></text>
          <text class="cls-13" transform="translate(588.18 245.21) scale(1.01 1)"><tspan x="0" y="0">/mo</tspan></text>
          <text class="cls-12" transform="translate(498.21 313.17) scale(1.01 1)"><tspan x="0" y="0">$687/yr</tspan></text>
          <text class="cls-2" transform="translate(453.49 470.57) scale(1.01 1)"><tspan class="cls-11"><tspan x="0" y="0">All Llimited links</tspan></tspan><tspan class="cls-11"><tspan x="0" y="45.26">Own analytics platform</tspan></tspan><tspan class="cls-11"><tspan x="0" y="90.52">Chat support</tspan></tspan><tspan class="cls-19"><tspan x="0" y="135.79">Optimize hashtags</tspan></tspan><tspan class="cls-19"><tspan x="0" y="181.05">Unlimited users</tspan></tspan></text>
          <text class="cls-8" transform="translate(424.07 369.44) scale(1.01 1)"><tspan x="0" y="0">For most business that want</tspan><tspan x="0" y="27.61">to optimize web queries</tspan></text>
          <text class="cls-15" transform="translate(1239.89 238.37) scale(.59)"><tspan x="0" y="0">$</tspan></text>
          <text class="cls-5" transform="translate(1269.35 270.71) scale(1.01 1)"><tspan x="0" y="0">82</tspan></text>
          <text class="cls-13" transform="translate(1386.4 245.21) scale(1.01 1)"><tspan x="0" y="0">/mo</tspan></text>
          <text class="cls-12" transform="translate(1300.12 313.17) scale(1.01 1)"><tspan x="0" y="0">$979/yr</tspan></text>
          <text class="cls-7" transform="translate(1251.71 470.57) scale(1.01 1)"><tspan x="0" y="0">All Llimited links</tspan><tspan x="0" y="45.26">Own analytics platform</tspan><tspan x="0" y="90.52">Chat support</tspan><tspan x="0" y="135.79">Optimize hashtags</tspan><tspan x="0" y="181.05">Unlimited users</tspan></text>
          <text class="cls-8" transform="translate(1222.3 369.44) scale(1.01 1)"><tspan x="0" y="0">For most business that want</tspan><tspan x="0" y="27.61">to optimize web queries</tspan></text>
          <text class="cls-10" transform="translate(876.82 679.46) scale(1.01 1)"><tspan x="0" y="0">Choose Plan</tspan></text>
          <text class="cls-6" transform="translate(1272.4 744.74) scale(1.01 1)"><tspan x="0" y="0">Choose Plan</tspan></text>
          <text class="cls-7" transform="translate(461.05 744.74) scale(1.01 1)"><tspan x="0" y="0">Choose Plan</tspan></text>
          <text class="cls-1" transform="translate(474.36 166.7) scale(1.01 1)"><tspan x="0" y="0">BASIC</tspan></text>
          <text class="cls-4" transform="translate(849.3 116.49) scale(1.01 1)"><tspan x="0" y="0">Standard</tspan></text>
          <text class="cls-1" transform="translate(1260.66 166.7) scale(1.01 1)"><tspan x="0" y="0">Premium</tspan></text>
          <path class="cls-20" d="M745.86,81.06v626.31c0,19.41,15.96,35.14,35.64,35.14h325.98c19.68,0,35.64-15.73,35.64-35.14V81.06c0-19.41-15.96-35.14-35.64-35.14h-325.98c-19.68,0-35.64,15.73-35.64,35.14Z"/>
        </g>
        <g>
          <g id="Footer_Text" data-name="Footer Text">
            <text class="cls-28" transform="translate(581.56 886.31)"><tspan x="0" y="0">COMPANY</tspan><tspan x="0" y="39.6">HOME</tspan><tspan x="0" y="66">FEATURES</tspan><tspan x="0" y="92.4">STORE</tspan><tspan x="0" y="118.8">DOWNLOAD</tspan></text>
            <text class="cls-28" transform="translate(1035.74 886.31)"><tspan x="0" y="0">HELP</tspan><tspan x="0" y="39.6">HELP CENTER</tspan><tspan x="0" y="66">GET STARTED</tspan><tspan x="0" y="92.4">CONTACT US</tspan><tspan x="0" y="118.8">FAQ</tspan></text>
            <text class="cls-28" transform="translate(1254.97 886.31)"><tspan x="0" y="0">CONNECT</tspan><tspan x="0" y="39.6">SOCIAL 1</tspan><tspan x="0" y="66">SOCIAL 2</tspan><tspan x="0" y="92.4">SOCIAL 3</tspan></text>
            <text class="cls-28" transform="translate(790.28 886.31)"><tspan x="0" y="0">ABOUT</tspan><tspan x="0" y="39.6">ABOUT US</tspan><tspan x="0" y="66">BLOG</tspan><tspan x="0" y="92.4">PRIVACY POLICY</tspan><tspan x="0" y="118.8">TERMS OF SERVICE</tspan></text>
          </g>
          <rect class="cls-24" x=".24" y="858.92" width="1920" height="2"/>
        </g>
      </g>
    </g>
  </g>
</svg>